<?xml version="1.0" encoding="utf-8"?>
<!-- Generator: Adobe Illustrator 21.1.0, SVG Export Plug-In . SVG Version: 6.00 Build 0)  -->
<svg version="1.1" id="Layer_1" xmlns="http://www.w3.org/2000/svg" xmlns:xlink="http://www.w3.org/1999/xlink" x="0px" y="0px"
	 viewBox="0 0 334 345.5" style="enable-background:new 0 0 334 345.5;" xml:space="preserve">
<style type="text/css">
	.st0{fill:#FFFFFF;}
</style>
<g>
	<path class="st0" d="M65.1,50.2l28.4-12.4c3.5,4,10.3,5.2,16.7,2.4l36.7-18.4l-32.2,8.6l-3.5-8.1l28-18.2l-38.4,14.5
		c-6.3,2.8-10.1,8.6-9.5,13.9L62.8,44.9c-2.2-2.1-5.5-2.9-8.5-1.6l-2.3,1l-1.5-4.7c-0.7-2.4-3.3-3.7-5.7-2.9c-2,0.6-3.3,2.6-3.1,4.7
		c-1-1.3-2.8-1.9-4.4-1.4c-2.1,0.7-3.3,3-2.6,5.1l0.3,0.9l-0.2-0.5c-0.6-1.9-2.7-3-4.6-2.4c-1.7,0.5-2.7,2.2-2.5,3.9
		c-0.8-1.1-2.3-1.6-3.6-1.2c-1.7,0.5-2.7,2.4-2.1,4.1l1.8,5.8c0,0.1,0.1,0.2,0.1,0.3c0,0,0,0.1,0.1,0.1c0,0.1,0,0.1,0.1,0.2
		c0,0.1,0.1,0.1,0.1,0.2c0,0,0,0.1,0.1,0.1c0,0.1,0.1,0.1,0.2,0.2c0,0,0,0,0,0c0.1,0.1,0.1,0.1,0.2,0.2c0,0,0,0,0,0
		c0.8,0.8,2.1,1.2,3.3,0.8c1.2-0.4,2.1-1.4,2.2-2.6c0-0.1,0-0.3,0-0.4c0.1,0.1,0.1,0.2,0.2,0.3c0,0,0,0,0,0c0.1,0.1,0.1,0.2,0.2,0.2
		l0,0l0,0c0.9,1.1,2.5,1.6,3.9,1.2c1.3-0.4,2.2-1.5,2.5-2.8c0.4,1.8-0.7,3.6-2.5,4.2c-1.7,0.5-3.5-0.2-4.3-1.7c0,1.4-0.9,2.6-2.3,3
		c-1.7,0.5-3.6-0.4-4.1-2.1l-0.1-0.3L8.8,63.3c-3.9,1.7-5.7,6.3-4,10.2c1.7,3.9,6.3,5.7,10.2,4l45.5-20
		C63.5,56.2,65.2,53.2,65.1,50.2z M50,54.6c-2,0.6-4.2-0.2-5.2-2c-0.1,1.6-1.2,3.1-2.8,3.7c-2.1,0.7-4.4-0.5-5.1-2.6l0,0
		c0.1-0.4,0.1-0.8,0-1.2l0,0c0,0,0,0,0,0c0-0.1,0-0.2,0-0.3c0-0.1,0-0.2-0.1-0.3l0.1,0.3c0,0.1,0,0.1,0.1,0.2l0,0
		c0.8,2,2.9,3.1,5,2.4c1.7-0.5,2.7-2,2.8-3.7c1,1.8,3.2,2.7,5.2,2c1.7-0.5,2.8-2,3.1-3.6C53.4,51.8,52.2,53.9,50,54.6z"/>
	<path class="st0" d="M191,77c0.4-0.1,1-0.2,1.5-0.3c1.2-0.2,2.6-0.5,4.2-0.7c0.8-0.1,1.7-0.2,2.6-0.3c0.5,0,0.9-0.1,1.4-0.1
		c0.2,0,0.5,0,0.7-0.1c0.2,0,0.5,0,0.7,0c0.5,0,1,0,1.5-0.1c0.5,0,1,0,1.6,0c0.3,0,0.5,0,0.8,0c0.3,0,0.5,0,0.8,0
		c0.6,0,1.1,0,1.7,0.1c2.3,0.2,4.6,0.6,7.1,1.1c2.4,0.6,4.9,1.3,7.3,2.3c0.6,0.2,1.2,0.5,1.8,0.8l0.9,0.4l0.4,0.2l0.5,0.2
		c0.3,0.1,0.6,0.3,0.9,0.4c0.3,0.1,0.6,0.3,0.8,0.5c0.6,0.3,1.1,0.7,1.7,1c2.2,1.4,4.2,3.1,5.9,5c1.8,1.9,3.4,3.9,4.8,5.9
		c1.4,2,2.7,4.1,3.8,6.1c1.1,2,2.2,3.9,3.2,5.7c1,1.8,1.9,3.4,2.8,4.8c0.9,1.4,1.8,2.5,2.7,3.4c0.9,0.8,1.7,1.3,2.3,1.5
		c0.2,0.1,0.3,0.1,0.4,0.1c0.1,0,0.2,0.1,0.3,0.1c0.2,0,0.2,0,0.2,0s-0.1,0-0.2-0.1c-0.1,0-0.2-0.1-0.3-0.1c-0.1,0-0.2-0.1-0.4-0.2
		c-0.6-0.3-1.3-0.8-2-1.7c-0.8-0.9-1.5-2.1-2.3-3.5c-0.8-1.4-1.6-3.1-2.5-4.9c-0.9-1.8-1.8-3.8-2.9-5.9c-1.1-2.1-2.3-4.2-3.7-6.4
		c-1.4-2.1-3-4.3-4.8-6.3c-1.8-2-3.9-3.8-6.2-5.4c-0.6-0.4-1.2-0.7-1.8-1.1c-0.3-0.2-0.6-0.3-0.9-0.5c-0.3-0.2-0.6-0.3-0.9-0.5
		l-0.5-0.2l-0.5-0.2l-0.9-0.4c-0.6-0.3-1.2-0.6-1.9-0.8c-0.6-0.2-1.3-0.5-1.9-0.7c-0.6-0.2-1.3-0.4-1.9-0.6c-0.3-0.1-0.6-0.2-1-0.3
		c-0.3-0.1-0.6-0.1-1-0.2c-0.6-0.1-1.3-0.3-1.9-0.4c-2.5-0.5-5-0.7-7.3-0.8c-2.3-0.1-4.6,0-6.6,0.2c-0.3,0-0.5,0-0.8,0.1
		c-0.2,0-0.5,0.1-0.7,0.1c-0.5,0.1-1,0.1-1.4,0.2c-0.9,0.2-1.8,0.3-2.6,0.5c-1.6,0.3-3,0.7-4.1,1.1c-1.1,0.3-2,0.6-2.6,0.9
		c-0.6,0.2-0.9,0.3-0.9,0.3s0.3-0.1,0.9-0.2C190.2,77.2,190.6,77.1,191,77z"/>
	<path class="st0" d="M239.3,319c-1,0-2.2,0.2-3.4,0.4c-1.2,0.2-2.4,0.6-3.3,0.9c-0.4,0.2-0.8,0.3-1.1,0.4c-0.3,0.1-0.4,0.2-0.4,0.2
		s0.2,0,0.4,0c0.3,0,0.7,0,1.2,0c1,0,2.2-0.2,3.4-0.4c1.2-0.2,2.4-0.6,3.3-0.9c0.4-0.2,0.8-0.3,1.1-0.4c0.3-0.1,0.4-0.2,0.4-0.2
		s-0.2,0-0.4,0C240.2,319,239.8,319,239.3,319z"/>
	<path class="st0" d="M202.5,326c-2.5,0.4-5.5,0.9-8.7,1.5c-1.6,0.3-3.2,0.6-4.9,0.9c-1.7,0.3-3.3,0.6-5,0.9c-1.7,0.3-3.4,0.7-5,1
		c-1.7,0.3-3.3,0.7-4.9,1c-1.6,0.3-3.1,0.6-4.5,0.9c-1.4,0.3-2.8,0.6-4.1,0.9c-5,1.1-8.3,1.9-8.3,1.9c0,0,3.4-0.4,8.5-1.2
		c1.3-0.2,2.6-0.4,4.1-0.7c1.5-0.2,3-0.5,4.6-0.8c1.6-0.3,3.2-0.6,4.9-0.9c1.7-0.3,3.3-0.6,5-0.9c1.7-0.3,3.4-0.7,5-1
		c1.7-0.3,3.3-0.7,4.9-1c3.1-0.6,6.1-1.3,8.6-1.8c5-1.1,8.3-1.9,8.3-1.9S207.6,325.2,202.5,326z"/>
	<path class="st0" d="M146.6,336.6c-1.4,0.2-3.1,0.4-4.9,0.7c-0.9,0.2-1.8,0.3-2.7,0.5c-0.9,0.2-1.9,0.3-2.8,0.5
		c-0.9,0.2-1.9,0.4-2.8,0.6c-0.9,0.2-1.8,0.4-2.7,0.6c-0.9,0.2-1.7,0.4-2.5,0.6c-0.8,0.2-1.6,0.4-2.3,0.5c-2.8,0.7-4.6,1.2-4.6,1.2
		s1.9-0.2,4.8-0.5c0.7-0.1,1.5-0.2,2.3-0.3c0.8-0.1,1.7-0.2,2.6-0.4c0.9-0.2,1.8-0.3,2.7-0.5c0.9-0.2,1.9-0.3,2.8-0.5
		c0.9-0.2,1.9-0.4,2.8-0.6c0.9-0.2,1.8-0.4,2.7-0.6c1.8-0.4,3.4-0.8,4.8-1.1c2.8-0.7,4.6-1.2,4.6-1.2S149.5,336.2,146.6,336.6z"/>
	<path class="st0" d="M237.6,315c-1.2,0.1-2.7,0.2-4.2,0.5c-1.5,0.3-3,0.7-4.1,1.1c-0.5,0.2-1,0.4-1.3,0.5c-0.3,0.1-0.5,0.2-0.5,0.2
		s0.2,0,0.5,0c0.3,0,0.8,0,1.4,0c1.2-0.1,2.7-0.2,4.2-0.5c1.5-0.3,3-0.7,4.1-1.1c0.5-0.2,1-0.4,1.3-0.5c0.3-0.1,0.5-0.2,0.5-0.2
		s-0.2,0-0.5,0C238.6,315,238.1,315,237.6,315z"/>
	<path class="st0" d="M190.8,323.6c-1.3,0.2-2.7,0.5-4,0.7c-1.3,0.3-2.7,0.5-4,0.8c-1.3,0.3-2.6,0.5-3.9,0.8
		c-1.3,0.3-2.5,0.5-3.6,0.8c-1.1,0.2-2.2,0.5-3.2,0.7c-4,0.9-6.6,1.6-6.6,1.6c0,0,2.7-0.3,6.8-0.9c1-0.2,2.1-0.3,3.3-0.5
		c1.2-0.2,2.4-0.4,3.6-0.6c1.3-0.2,2.6-0.4,3.9-0.7c1.3-0.2,2.7-0.5,4-0.7c1.3-0.3,2.7-0.5,4-0.8c1.3-0.3,2.6-0.5,3.9-0.8
		c2.5-0.5,4.8-1,6.8-1.5c4-0.9,6.6-1.6,6.6-1.6c0,0-2.7,0.3-6.8,0.9c-2,0.3-4.4,0.7-6.9,1.1C193.5,323.1,192.2,323.4,190.8,323.6z"
		/>
	<path class="st0" d="M126.4,336.9c1.1-0.2,2.2-0.3,3.4-0.6c1.2-0.2,2.4-0.4,3.6-0.6c1.2-0.2,2.5-0.5,3.7-0.7
		c1.2-0.2,2.5-0.5,3.7-0.7c1.2-0.2,2.4-0.5,3.6-0.7c2.3-0.5,4.5-1,6.3-1.4c3.7-0.9,6.1-1.5,6.1-1.5s-2.5,0.3-6.3,0.8
		c-1.9,0.3-4.1,0.6-6.4,1c-1.2,0.2-2.4,0.4-3.6,0.6c-1.2,0.2-2.5,0.5-3.7,0.7c-1.2,0.2-2.5,0.5-3.7,0.7c-1.2,0.2-2.4,0.5-3.6,0.7
		c-1.2,0.2-2.3,0.5-3.3,0.7c-1.1,0.2-2.1,0.5-3,0.7c-3.7,0.9-6.1,1.5-6.1,1.5s2.5-0.3,6.3-0.8C124.3,337.2,125.4,337.1,126.4,336.9z
		"/>
	<path class="st0" d="M232.2,312.6c1-0.2,1.9-0.4,2.9-0.6c0.9-0.2,1.7-0.4,2.5-0.7c0.7-0.2,1.3-0.4,1.7-0.6c0.4-0.1,0.6-0.2,0.6-0.2
		s-0.3,0-0.7,0c-0.4,0-1.1,0-1.8,0.1c-0.7,0.1-1.6,0.2-2.5,0.3c-0.9,0.1-1.9,0.3-2.9,0.5c-1,0.2-1.9,0.4-2.9,0.6
		c-0.9,0.2-1.7,0.4-2.5,0.7c-0.7,0.2-1.3,0.4-1.7,0.6c-0.4,0.1-0.6,0.2-0.6,0.2s0.3,0,0.7,0c0.4,0,1.1,0,1.8-0.1
		c0.7-0.1,1.6-0.2,2.5-0.3C230.2,313,231.2,312.8,232.2,312.6z"/>
	<path class="st0" d="M189.2,319.6c-1,0.2-2,0.3-3,0.5c-1,0.2-2.1,0.4-3.1,0.6c-1,0.2-2.1,0.4-3.1,0.6c-1,0.2-2,0.4-3,0.6
		c-1,0.2-1.9,0.4-2.8,0.6c-0.9,0.2-1.7,0.4-2.5,0.6c-3.1,0.7-5.2,1.3-5.2,1.3s2.1-0.2,5.3-0.6c0.8-0.1,1.7-0.2,2.6-0.4
		c0.9-0.1,1.9-0.3,2.9-0.5c1-0.2,2-0.3,3.1-0.5c1-0.2,2.1-0.4,3.1-0.6c1-0.2,2.1-0.4,3.1-0.6c1-0.2,2-0.4,3-0.6
		c2-0.4,3.8-0.8,5.4-1.2c3.1-0.7,5.2-1.3,5.2-1.3s-2.1,0.2-5.3,0.6C193,319,191.1,319.3,189.2,319.6z"/>
	<path class="st0" d="M121.8,333.5c1.1-0.2,2.2-0.4,3.4-0.6c1.2-0.2,2.3-0.4,3.5-0.6c1.2-0.2,2.3-0.5,3.5-0.7
		c1.1-0.2,2.3-0.5,3.4-0.7c2.2-0.5,4.2-0.9,6-1.3c3.5-0.8,5.8-1.5,5.8-1.5c0,0-2.4,0.2-5.9,0.8c-1.8,0.3-3.8,0.6-6,1
		c-1.1,0.2-2.2,0.4-3.4,0.6c-1.2,0.2-2.3,0.4-3.5,0.6c-1.2,0.2-2.3,0.5-3.5,0.7c-1.1,0.2-2.3,0.5-3.4,0.7c-1.1,0.2-2.1,0.5-3.1,0.7
		c-1,0.2-1.9,0.4-2.8,0.6c-3.5,0.8-5.8,1.5-5.8,1.5s2.4-0.2,5.9-0.8c0.9-0.1,1.8-0.3,2.8-0.4C119.6,333.9,120.7,333.7,121.8,333.5z"
		/>
	<path class="st0" d="M223.3,309.7c0.5,0,0.9-0.1,1.5-0.2c0.5-0.1,1.1-0.1,1.6-0.2c0.6-0.1,1.1-0.2,1.7-0.3c0.6-0.1,1.2-0.2,1.8-0.3
		c0.6-0.1,1.2-0.2,1.8-0.4c0.6-0.1,1.1-0.3,1.7-0.4c1.1-0.3,2.1-0.5,3-0.8c0.9-0.2,1.6-0.5,2.1-0.6c0.5-0.2,0.8-0.3,0.8-0.3
		s-0.3,0-0.8,0c-0.5,0-1.3,0.1-2.2,0.2c-0.9,0.1-1.9,0.2-3.1,0.4c-0.6,0.1-1.1,0.2-1.7,0.3c-0.6,0.1-1.2,0.2-1.8,0.3
		c-0.6,0.1-1.2,0.2-1.8,0.4c-0.6,0.1-1.1,0.3-1.7,0.4c-0.6,0.1-1.1,0.3-1.6,0.4c-0.5,0.1-1,0.3-1.4,0.4c-0.9,0.2-1.6,0.5-2.1,0.6
		c-0.5,0.2-0.8,0.3-0.8,0.3s0.3,0,0.8,0C221.6,309.8,222.4,309.8,223.3,309.7z"/>
	<path class="st0" d="M171.3,319.6c0.8-0.1,1.7-0.2,2.6-0.4c0.9-0.2,1.8-0.3,2.7-0.5c0.9-0.2,1.9-0.3,2.8-0.5
		c0.9-0.2,1.9-0.4,2.8-0.6c0.9-0.2,1.8-0.4,2.7-0.6c1.8-0.4,3.4-0.8,4.8-1.1c2.8-0.7,4.7-1.2,4.7-1.2s-1.9,0.2-4.8,0.5
		c-1.4,0.2-3.1,0.4-4.9,0.7c-0.9,0.2-1.8,0.3-2.7,0.5c-0.9,0.2-1.9,0.3-2.8,0.5c-0.9,0.2-1.9,0.4-2.8,0.6c-0.9,0.2-1.8,0.4-2.7,0.6
		c-0.9,0.2-1.7,0.4-2.5,0.6c-0.8,0.2-1.6,0.4-2.3,0.5c-2.8,0.7-4.7,1.2-4.7,1.2s1.9-0.2,4.8-0.6
		C169.8,319.8,170.5,319.7,171.3,319.6z"/>
	<path class="st0" d="M115,330.5c1-0.2,2.1-0.3,3.2-0.5c1.1-0.2,2.2-0.4,3.3-0.6c1.1-0.2,2.2-0.4,3.3-0.6c1.1-0.2,2.1-0.4,3.2-0.6
		c2-0.4,3.9-0.9,5.6-1.2c3.3-0.8,5.4-1.4,5.4-1.4s-2.2,0.2-5.5,0.7c-1.7,0.2-3.6,0.5-5.6,0.9c-1,0.2-2.1,0.3-3.2,0.5
		c-1.1,0.2-2.2,0.4-3.3,0.6c-1.1,0.2-2.2,0.4-3.3,0.6c-1.1,0.2-2.1,0.4-3.2,0.6c-1,0.2-2,0.4-2.9,0.6c-0.9,0.2-1.8,0.4-2.6,0.6
		c-3.3,0.8-5.4,1.4-5.4,1.4s2.2-0.2,5.5-0.7c0.8-0.1,1.7-0.2,2.7-0.4C113,330.8,114,330.6,115,330.5z"/>
	<path class="st0" d="M218.3,306.2c0.8-0.1,1.8-0.2,2.9-0.4c1.1-0.2,2.2-0.3,3.3-0.5c1.1-0.2,2.2-0.4,3.3-0.7c1-0.2,2-0.5,2.8-0.7
		c0.8-0.2,1.5-0.4,2-0.6c0.5-0.2,0.7-0.3,0.7-0.3s-0.3,0-0.8,0c-0.5,0-1.2,0.1-2.1,0.2c-0.8,0.1-1.8,0.2-2.9,0.3
		c-1.1,0.2-2.2,0.3-3.3,0.6c-1.1,0.2-2.2,0.4-3.3,0.7c-1,0.2-2,0.5-2.8,0.7c-0.8,0.2-1.5,0.5-2,0.6c-0.5,0.2-0.7,0.3-0.7,0.3
		s0.3,0,0.8,0C216.8,306.3,217.5,306.3,218.3,306.2z"/>
	<path class="st0" d="M166.1,316.2c0.7-0.1,1.5-0.2,2.3-0.4c0.8-0.1,1.6-0.3,2.5-0.4c0.8-0.2,1.7-0.3,2.5-0.5
		c0.8-0.2,1.7-0.3,2.5-0.5c0.8-0.2,1.6-0.3,2.4-0.5c1.6-0.3,3-0.7,4.3-1c2.5-0.6,4.2-1.2,4.2-1.2s-1.7,0.1-4.3,0.5
		c-1.3,0.2-2.8,0.4-4.4,0.6c-0.8,0.1-1.6,0.3-2.5,0.4c-0.8,0.2-1.7,0.3-2.5,0.5c-0.8,0.2-1.7,0.3-2.5,0.5c-0.8,0.2-1.6,0.4-2.4,0.5
		c-0.8,0.2-1.5,0.3-2.3,0.5c-0.7,0.2-1.4,0.3-2,0.5c-2.5,0.6-4.2,1.2-4.2,1.2s1.7-0.1,4.3-0.5C164.7,316.4,165.4,316.3,166.1,316.2z
		"/>
	<path class="st0" d="M104.7,327.8c0.8-0.1,1.6-0.2,2.4-0.4c0.9-0.1,1.8-0.3,2.7-0.4c0.9-0.2,1.9-0.3,2.9-0.5c1-0.2,2-0.4,3-0.5
		c1-0.2,2-0.4,3-0.6c1-0.2,1.9-0.4,2.9-0.6c1.9-0.4,3.6-0.8,5.1-1.2c3-0.7,4.9-1.3,4.9-1.3s-2,0.2-5,0.6c-1.5,0.2-3.3,0.5-5.1,0.8
		c-0.9,0.2-1.9,0.3-2.9,0.5c-1,0.2-2,0.4-3,0.5c-1,0.2-2,0.4-3,0.6c-1,0.2-1.9,0.4-2.9,0.6c-0.9,0.2-1.8,0.4-2.7,0.6
		c-0.8,0.2-1.6,0.4-2.4,0.6c-3,0.7-4.9,1.3-4.9,1.3S101.7,328.2,104.7,327.8z"/>
	<path class="st0" d="M215.2,302.3c1.2-0.1,2.8-0.3,4.4-0.5c1.6-0.3,3.1-0.7,4.3-1.1c0.6-0.2,1.1-0.4,1.4-0.5
		c0.3-0.1,0.5-0.2,0.5-0.2s-0.2,0-0.6,0c-0.4,0-0.9,0-1.5,0c-1.2,0.1-2.8,0.3-4.4,0.5c-1.6,0.3-3.1,0.7-4.3,1.1
		c-0.6,0.2-1.1,0.4-1.4,0.5c-0.3,0.1-0.5,0.2-0.5,0.2s0.2,0,0.6,0C214.1,302.3,214.6,302.3,215.2,302.3z"/>
	<path class="st0" d="M162.4,312.5c0.7-0.1,1.5-0.2,2.3-0.4c0.8-0.1,1.6-0.3,2.5-0.4c0.8-0.2,1.7-0.3,2.6-0.5
		c0.9-0.2,1.7-0.3,2.5-0.5c0.8-0.2,1.7-0.4,2.5-0.5c1.6-0.3,3.1-0.7,4.3-1c2.5-0.6,4.2-1.2,4.2-1.2s-1.7,0.1-4.3,0.5
		c-1.3,0.2-2.8,0.4-4.4,0.6c-0.8,0.1-1.6,0.3-2.5,0.4c-0.8,0.2-1.7,0.3-2.6,0.5c-0.9,0.2-1.7,0.3-2.5,0.5c-0.8,0.2-1.7,0.4-2.5,0.5
		c-0.8,0.2-1.6,0.4-2.3,0.5c-0.7,0.2-1.4,0.3-2.1,0.5c-2.5,0.6-4.2,1.2-4.2,1.2s1.7-0.1,4.3-0.5
		C160.9,312.8,161.6,312.7,162.4,312.5z"/>
	<path class="st0" d="M104.3,323.5c0.6-0.1,1.2-0.2,1.9-0.3c0.7-0.1,1.4-0.2,2.1-0.3c0.7-0.1,1.5-0.2,2.3-0.4
		c0.8-0.1,1.6-0.3,2.3-0.4c0.8-0.2,1.6-0.3,2.3-0.5c0.8-0.1,1.5-0.3,2.3-0.5c1.5-0.3,2.8-0.6,4-0.9c2.3-0.6,3.9-1.1,3.9-1.1
		s-1.6,0.1-4,0.4c-1.2,0.1-2.6,0.3-4.1,0.6c-0.7,0.1-1.5,0.2-2.3,0.4c-0.8,0.1-1.6,0.3-2.3,0.4c-0.8,0.2-1.6,0.3-2.3,0.5
		c-0.8,0.1-1.5,0.3-2.3,0.5c-0.7,0.2-1.4,0.3-2.1,0.5c-0.7,0.2-1.3,0.3-1.9,0.5c-2.3,0.6-3.9,1.1-3.9,1.1S101.9,323.8,104.3,323.5z"
		/>
	<path class="st0" d="M207.6,299.2c0.4,0,0.9,0,1.4,0c1.2-0.1,2.8-0.3,4.3-0.5c1.5-0.3,3.1-0.7,4.2-1.1c0.6-0.2,1-0.4,1.4-0.5
		c0.3-0.1,0.5-0.2,0.5-0.2s-0.2,0-0.6,0c-0.4,0-0.9,0-1.4,0c-1.2,0.1-2.8,0.3-4.3,0.5c-1.5,0.3-3.1,0.7-4.2,1.1
		c-0.6,0.2-1,0.4-1.4,0.5c-0.3,0.1-0.5,0.2-0.5,0.2S207.3,299.2,207.6,299.2z"/>
	<path class="st0" d="M158.2,308.9c0.9-0.1,1.8-0.3,2.8-0.4c1-0.2,2-0.3,3-0.5c1-0.2,2-0.4,3.1-0.6c1-0.2,2-0.4,3-0.6
		c1-0.2,2-0.4,2.9-0.6c1.9-0.4,3.7-0.8,5.2-1.2c3-0.7,5-1.3,5-1.3s-2.1,0.2-5.2,0.6c-1.5,0.2-3.3,0.5-5.3,0.8c-1,0.2-2,0.3-3,0.5
		c-1,0.2-2,0.4-3.1,0.6c-1,0.2-2,0.4-3,0.6c-1,0.2-2,0.4-2.9,0.6c-1,0.2-1.9,0.4-2.7,0.6c-0.9,0.2-1.7,0.4-2.5,0.6
		c-3,0.7-5,1.3-5,1.3c0,0,2.1-0.2,5.2-0.6C156.5,309.2,157.4,309.1,158.2,308.9z"/>
	<path class="st0" d="M102.1,319.3c0.5,0,1.3-0.1,2.2-0.2c0.5,0,0.9-0.1,1.5-0.2c0.5-0.1,1.1-0.1,1.6-0.2c0.6-0.1,1.1-0.2,1.7-0.3
		c0.6-0.1,1.2-0.2,1.8-0.3c0.6-0.1,1.2-0.2,1.8-0.4c0.6-0.1,1.2-0.3,1.7-0.4c1.1-0.3,2.1-0.5,3-0.8c0.9-0.2,1.6-0.5,2.1-0.6
		c0.5-0.2,0.8-0.3,0.8-0.3s-0.3,0-0.8,0c-0.5,0-1.3,0.1-2.2,0.2c-0.9,0.1-2,0.2-3.1,0.4c-0.6,0.1-1.1,0.2-1.7,0.3
		c-0.6,0.1-1.2,0.2-1.8,0.3c-0.6,0.1-1.2,0.2-1.8,0.4c-0.6,0.1-1.2,0.3-1.7,0.4c-0.6,0.1-1.1,0.3-1.6,0.4c-0.5,0.1-1,0.3-1.4,0.4
		c-0.9,0.2-1.6,0.5-2.1,0.6c-0.5,0.2-0.8,0.3-0.8,0.3S101.5,319.3,102.1,319.3z"/>
	<path class="st0" d="M208.9,294.8c0.8,0,1.8-0.1,2.9-0.3c1-0.2,2-0.5,2.8-0.8c0.4-0.2,0.7-0.3,0.9-0.4c0.2-0.1,0.3-0.2,0.3-0.2
		s-0.1,0-0.4-0.1c-0.2,0-0.6-0.1-1-0.1c-0.8,0-1.8,0.1-2.8,0.3c-1,0.2-2,0.5-2.8,0.8c-0.4,0.2-0.7,0.3-0.9,0.4
		c-0.2,0.1-0.3,0.2-0.3,0.2s0.1,0,0.4,0.1C208.1,294.8,208.5,294.8,208.9,294.8z"/>
	<path class="st0" d="M160.1,304.3c1-0.2,2-0.3,3-0.5c1-0.2,2.1-0.4,3.1-0.6c1-0.2,2.1-0.4,3.1-0.6c1-0.2,2-0.4,3-0.6
		c2-0.4,3.8-0.8,5.3-1.2c3.1-0.7,5.2-1.3,5.2-1.3s-2.1,0.2-5.3,0.6c-1.6,0.2-3.4,0.5-5.4,0.8c-1,0.2-2,0.3-3,0.5
		c-1,0.2-2.1,0.4-3.1,0.6c-1,0.2-2.1,0.4-3.1,0.6c-1,0.2-2,0.4-3,0.6c-1,0.2-1.9,0.4-2.8,0.6c-0.9,0.2-1.7,0.4-2.5,0.6
		c-3.1,0.7-5.2,1.3-5.2,1.3s2.1-0.2,5.3-0.6c0.8-0.1,1.6-0.2,2.5-0.4C158.2,304.6,159.2,304.5,160.1,304.3z"/>
	<path class="st0" d="M102.6,314.8c0.4,0,1.1,0,1.8-0.1c0.7-0.1,1.6-0.2,2.5-0.3c0.9-0.1,1.9-0.3,2.9-0.5c1-0.2,1.9-0.4,2.8-0.6
		c0.9-0.2,1.7-0.4,2.5-0.7c0.7-0.2,1.3-0.4,1.7-0.6c0.4-0.1,0.6-0.2,0.6-0.2s-0.3,0-0.7,0c-0.4,0-1.1,0-1.8,0.1
		c-0.7,0.1-1.6,0.2-2.5,0.3c-0.9,0.1-1.9,0.3-2.9,0.5c-1,0.2-1.9,0.4-2.8,0.6c-0.9,0.2-1.7,0.4-2.5,0.7c-0.7,0.2-1.3,0.4-1.7,0.6
		c-0.4,0.1-0.6,0.2-0.6,0.2S102.2,314.8,102.6,314.8z"/>
	<g>
		<path class="st0" d="M146.3,154.1c-0.4-0.6-0.8-1.2-1.3-1.7c-0.5-0.5-0.9-0.7-1.2-0.7c-0.6,0-1.5,0.8-2.7,2.4c-0.6,1-1,2.1-1.1,3
			c-0.1,1-0.1,2.8,0.1,5.6c0.3,4.8,0.6,9.3,0.8,13.3c0,1.6,0.1,2.9,0.2,3.7c0.1,0.8,0.2,1.5,0.3,2.1c0.1,0.5,0.3,0.9,0.4,1
			c0.1,0.1,0.3,0.2,0.6,0.1c0.8-0.1,1.9-1.4,3.2-3.9c0.9-1.7,1.5-3.2,1.7-4.5c0.2-1.3,0.3-4.1,0.3-8.5c0-4.1-0.1-6.8-0.3-8.2
			C147.4,156.3,146.9,155.1,146.3,154.1z"/>
		<path class="st0" d="M168.9,157.8c-0.5,0-1.5,0.3-3,0.8c-1.1,0.5-1.8,0.9-1.9,1.3c-0.2,0.4-0.2,1.7-0.1,3.8
			c0.1,2.1,0.2,3.4,0.4,3.7c0.2,0.3,0.7,0.4,1.7,0.3c0.7-0.1,1.3-0.5,1.8-1c0.5-0.5,1.1-1.6,1.8-3.1c0.8-1.6,1.2-2.8,1.3-3.4
			c0.1-0.6-0.1-1.1-0.4-1.6C169.9,158.1,169.4,157.8,168.9,157.8z"/>
		<path class="st0" d="M263.2,73.6c12.2,10.7,29.5,37.1,33.1,42.6l-0.6,0.4l2.6,4.1c0-0.2,0-0.4,0-0.6c0-1.5,0.7-2.8,1.7-3.9
			c1-1,2.4-1.5,3.8-1.5c0.5,0,1,0.1,1.5,0.2l3.6-3.3c0.1-0.1,0.2-0.1,0.2-0.2l-0.4-0.6c-0.3-0.5-0.9-0.8-1.4-0.9c0,0,0,0-0.2,0
			c1.6-2,6.5-5.7,12-8.8l1-0.6l-0.5-1c-6.3-11.5-12.1-21.1-17.1-28.9c-12.7-19.9-20.5-28.1-20.6-28.2l-0.7-0.8l-0.8,0.5
			c-6.1,4.6-11.1,8.4-15,11.6c-1,0.8-2,1.6-2.9,2.2c-3.9,3-6.1,5.3-6.2,8C256.2,66.5,258.1,69.2,263.2,73.6z M281.1,44.7
			c3.3,3.5,16.8,19.6,36,54.8c-0.5,0.3-1.1,0.7-1.8,1.2c-6-11.1-11.5-20.1-16.3-27.7c-10.1-15.8-17-24.2-19.5-27.1
			C280.1,45.5,280.7,45.1,281.1,44.7z M263.6,62.9c1-0.6,2.3-0.4,3,0.7c0.6,1,0.3,2.3-0.5,2.9c-1.1,0.7-2.5,0.4-3.1-0.6
			C262.4,64.9,262.6,63.6,263.6,62.9z"/>
		<path class="st0" d="M177.7,104.9c0-0.3,0-0.6-0.2-0.9c-0.1-0.3-0.3-0.4-0.6-0.4c-0.5,0-1,1.1-1.3,3.3c-0.3,2.1-0.7,4.1-1.1,6.2
			l-0.6,2.8l2.2,0.1c1.5,0.1,2.3-0.2,2.6-1c0.3-0.7,0.2-2.3-0.3-4.8C177.9,107.9,177.6,106,177.7,104.9z"/>
		<path class="st0" d="M329,140.9c-0.6-0.9-1.4-1.4-2.2-1.7l-1,0.9c-0.8,0.8-1.8,1.2-2.9,1.2c-1.2,0-2.3-0.5-3.1-1.4
			c-0.8-0.8-1.2-1.9-1.2-2.9c-0.2,0-0.3,0-0.5,0c-1.3,0-2.5-0.5-3.4-1.5c-0.9-1-1.3-2.3-1.2-3.6c-0.3,0.1-0.6,0.1-0.9,0.1
			c-0.7,0-1.3-0.1-1.9-0.4c-0.4,0.1-0.8,0.1-1.2,0.1l0,0c-1.5,0-3-0.6-4-1.7l-3.6-3.8l15.2,23.9c1.2,1.9,4.7,5,8.8,2.4
			c4.6-2.9,4.9-8.7,3.2-11.5L329,140.9z M323.1,146.8c-0.8,0.5-1.9,0.3-2.4-0.5c-0.5-0.8-0.3-1.9,0.5-2.4c0.8-0.5,1.9-0.3,2.4,0.5
			C324.1,145.3,323.9,146.3,323.1,146.8z"/>
		<path class="st0" d="M298.1,143.9c0.3,0.3,0.5,0.5,0.8,0.8c-8.7,8-17.4,13.9-26.1,17.5c-5.3,2.2-10.5,3.6-15.7,4.2
			c0.1,0,0.2,0,0.3,0c0.6-0.1,1.1-0.3,1.7-0.4l0.8-0.2l0.4-0.1l0.4-0.1c0.5-0.2,1.1-0.3,1.6-0.5c0.5-0.2,1.1-0.3,1.6-0.5
			c0.5-0.2,1-0.4,1.5-0.6c1-0.4,2-0.7,2.8-1.2c0.9-0.4,1.7-0.8,2.5-1.2c0.8-0.4,1.4-0.8,2-1.1c0.6-0.3,1.1-0.7,1.5-0.9
			c0.9-0.5,1.3-0.8,1.3-0.8s-0.5,0.2-1.5,0.6c-0.5,0.2-1,0.4-1.7,0.7c-0.6,0.3-1.3,0.6-2.1,0.8c-0.8,0.3-1.6,0.6-2.5,1
			c-0.4,0.2-0.9,0.4-1.4,0.5c-0.5,0.2-1,0.3-1.5,0.5c-0.5,0.2-1,0.3-1.5,0.5c-0.5,0.2-1,0.3-1.6,0.5c-0.5,0.2-1.1,0.3-1.6,0.5
			l-0.4,0.1l-0.4,0.1l-0.8,0.2c-0.5,0.1-1.1,0.3-1.6,0.4c-0.5,0.1-1.1,0.2-1.6,0.3c-0.3,0-0.5,0.1-0.8,0.1c-0.3,0-0.5,0.1-0.8,0.1
			c-0.5,0.1-1.1,0.1-1.6,0.2c-0.3,0-0.5,0.1-0.8,0.1c-0.3,0-0.5,0-0.8,0c-0.2,0-0.3,0-0.5,0c0.1-0.2,0.2-0.4,0.3-0.6
			c0.4-0.8,0.7-1.6,1-2.3c0.2-0.4,0.3-0.7,0.5-1.1c0.1-0.4,0.3-0.7,0.4-1.1c0.2-0.7,0.5-1.3,0.7-2c0.4-1.3,0.7-2.4,0.9-3.3
			c0.2-0.9,0.4-1.6,0.5-2.1c0.1-0.5,0.2-0.8,0.2-0.8s-0.1,0.3-0.3,0.7c-0.2,0.5-0.5,1.2-0.8,2c-0.3,0.9-0.8,1.9-1.3,3.1
			c-0.2,0.6-0.6,1.2-0.9,1.9c-0.2,0.3-0.3,0.7-0.5,1c-0.2,0.3-0.4,0.7-0.5,1c-0.4,0.7-0.7,1.4-1.2,2.2c-0.2,0.4-0.5,0.9-0.7,1.3
			c-0.2,0-0.3,0-0.5,0c0.9-1.7,1.7-3.3,2.3-4.8c5.7-13.3,9.3-35.8,11.4-37.7c3.7-2.9,1.4-5.8-6.4-7.2c-7.9-1.4-10.6-26.5-29.4-35.4
			c-18.8-8.9-36.2-3.1-45.9,0.8c-9.7,3.9-27.3-5.4-42.8-2.7c-20.8,3.6-36.9,17.4-64.2,42.4c-0.1-0.1-0.2-0.2-0.3-0.3
			c0.8-0.8,1.6-1.5,2.5-2.3c1.4-1.3,2.8-2.6,4.3-4c1.4-1.3,2.9-2.6,4.3-4c1.4-1.3,2.9-2.6,4.3-3.9c1.4-1.3,2.9-2.6,4.3-3.9
			c1.5-1.3,2.9-2.5,4.3-3.7c1.4-1.2,2.9-2.4,4.3-3.6c1.4-1.1,2.8-2.2,4.2-3.3c1.4-1,2.8-2.1,4.1-3c0.7-0.5,1.4-0.9,2-1.4
			c0.7-0.5,1.3-0.9,2-1.3c0.7-0.4,1.3-0.8,2-1.2c0.3-0.2,0.6-0.4,1-0.6c0.3-0.2,0.6-0.4,1-0.5c2.5-1.4,4.9-2.6,7.1-3.6
			c1.1-0.5,2.1-0.9,3.1-1.3c1-0.3,1.9-0.6,2.7-0.9c0.4-0.1,0.8-0.3,1.1-0.4c0.4-0.1,0.7-0.2,1-0.3c0.6-0.2,1.2-0.3,1.6-0.4
			c0.9-0.2,1.4-0.4,1.4-0.4s-0.5,0.1-1.4,0.3c-0.5,0.1-1,0.2-1.7,0.3c-0.3,0.1-0.7,0.1-1.1,0.2c-0.4,0.1-0.8,0.2-1.2,0.3
			c-0.8,0.2-1.8,0.5-2.8,0.7c-1,0.3-2,0.7-3.2,1.1c-0.6,0.2-1.1,0.4-1.7,0.7c-0.6,0.2-1.2,0.5-1.8,0.8c-0.3,0.1-0.6,0.3-0.9,0.4
			c-0.3,0.2-0.6,0.3-0.9,0.5c-0.6,0.3-1.3,0.6-1.9,1c-0.3,0.2-0.7,0.3-1,0.5c-0.3,0.2-0.7,0.4-1,0.6c-0.7,0.4-1.4,0.8-2,1.2
			c-0.7,0.4-1.4,0.8-2.1,1.3c-0.7,0.4-1.4,0.9-2.1,1.3c-1.4,0.9-2.8,1.9-4.3,3c-1.4,1.1-2.9,2.2-4.3,3.3c-1.4,1.2-2.9,2.3-4.4,3.5
			c-1.5,1.2-2.9,2.4-4.4,3.7c-1.4,1.3-2.9,2.6-4.4,3.9c-1.4,1.3-2.9,2.6-4.4,3.9c-1.4,1.3-2.9,2.7-4.3,4c-1.4,1.3-2.8,2.7-4.2,4
			c-0.8,0.8-1.7,1.6-2.5,2.3c-0.4-0.5-0.9-0.9-1.3-1.4c-0.6-0.6-1.2-1.3-1.7-1.9c-1.1-1.3-2.2-2.6-3.1-3.9c-0.5-0.6-0.9-1.3-1.4-1.9
			c-0.4-0.6-0.9-1.3-1.3-1.9c-0.8-1.2-1.5-2.5-2.2-3.6c-0.6-1.1-1.2-2.2-1.7-3.1c-0.5-0.9-0.9-1.8-1.2-2.5c-0.7-1.4-1-2.2-1-2.2
			s0.1,0.2,0.2,0.6c0.1,0.4,0.3,1,0.5,1.7c0.5,1.5,1.3,3.5,2.5,5.9c0.6,1.2,1.2,2.5,2,3.8c0.4,0.7,0.8,1.3,1.2,2
			c0.4,0.7,0.9,1.3,1.4,2c0.5,0.7,1,1.4,1.5,2c0.3,0.3,0.5,0.7,0.8,1c0.3,0.3,0.5,0.7,0.8,1c0.1,0.1,0.2,0.2,0.3,0.3
			c-3.1-3.2-5.9-6.8-8.4-11c-5.5-9.3-9.4-21.1-11.5-35c4-2.2,6.8-6.1,7.6-10.4l-22.9,10c2.8,1.7,6,2.5,9.4,2.2
			c2.3,14.4,6.3,26.6,12.1,36.4c0.7,1.1,1.3,2.2,2,3.2c-0.4-0.5-0.8-1-1.1-1.5c-1-1.4-2-2.8-2.9-4.3c-0.5-0.7-0.9-1.5-1.3-2.2
			c-0.4-0.8-0.8-1.5-1.2-2.3c-0.8-1.5-1.5-3-2.2-4.5c-0.3-0.7-0.6-1.5-0.9-2.2c-0.3-0.7-0.6-1.4-0.8-2.1c-0.5-1.4-1-2.7-1.4-4
			c-0.4-1.2-0.7-2.4-1-3.4c-0.3-1-0.5-1.9-0.7-2.7c-0.3-1.5-0.5-2.4-0.5-2.4s0,0.2,0,0.6c0,0.4,0.1,1,0.2,1.8
			c0.2,1.5,0.5,3.7,1.1,6.3c0.3,1.3,0.7,2.7,1.2,4.1c0.2,0.7,0.5,1.5,0.7,2.2c0.3,0.7,0.6,1.5,0.9,2.3c0.3,0.8,0.6,1.5,1,2.3
			c0.2,0.4,0.3,0.8,0.5,1.2c0.2,0.4,0.4,0.8,0.6,1.2c0.4,0.8,0.8,1.5,1.2,2.3c0.4,0.8,0.9,1.5,1.3,2.3c0.9,1.5,1.9,3,3,4.4
			c0.3,0.3,0.5,0.7,0.8,1c0.3,0.3,0.5,0.7,0.8,1c0.3,0.3,0.5,0.7,0.8,1c0.3,0.3,0.6,0.6,0.8,0.9c0.3,0.3,0.6,0.6,0.8,0.9
			c0.3,0.3,0.6,0.6,0.8,0.9c0.6,0.6,1.1,1.1,1.7,1.6c0.6,0.5,1.1,1,1.6,1.5c0.5,0.5,1.1,0.9,1.6,1.3c0.4,0.3,0.8,0.6,1.2,0.9
			c0.5,0.4,1,0.9,1.4,1.3c-0.2,0.1-0.3,0.3-0.5,0.4c-1.3,1.2-2.7,2.3-4.1,3.4c-1.4,1.1-2.8,2.1-4.1,3c-2.8,1.9-5.5,3.4-8.1,4.8
			c-2.6,1.4-5,2.6-7.1,3.7c-2.1,1.1-3.9,2.2-5.3,3.2c-1.4,1.1-2.3,2.1-2.7,2.9c-0.1,0.2-0.2,0.4-0.3,0.5c-0.1,0.2-0.1,0.3-0.2,0.4
			c-0.1,0.2-0.1,0.3-0.1,0.3s0.1-0.1,0.2-0.3c0.1-0.1,0.1-0.2,0.2-0.4c0.1-0.1,0.2-0.3,0.3-0.5c0.1-0.2,0.3-0.4,0.5-0.6
			c0.2-0.2,0.4-0.4,0.6-0.7c0.5-0.4,1.1-0.9,1.8-1.4c1.4-0.9,3.3-1.9,5.4-2.9c2.2-1,4.6-2.1,7.3-3.4c1.3-0.6,2.7-1.3,4.1-2.1
			c1.4-0.8,2.8-1.6,4.3-2.5c1.4-0.9,2.9-1.9,4.3-2.9c1.4-1.1,2.9-2.2,4.3-3.4c0.2-0.2,0.5-0.4,0.7-0.6c0.1,0.1,0.2,0.1,0.3,0.2
			c-15.7,13.6-30.3,14.4-33,21.4c-0.8,1.9-0.8,5.1,2.1,9.2c0,0,0,0,0,0c0.9,2,2.4,4.2,4.6,6.4c1.1,1.1,2.3,2.2,3.6,3.2
			c0.7,0.5,1.3,1.1,2.1,1.6c0.4,0.3,0.7,0.5,1.1,0.8c0.4,0.3,0.8,0.5,1.1,0.8c0.8,0.5,1.6,1,2.4,1.6c0.8,0.5,1.7,1,2.5,1.5
			c1.7,1,3.5,2,5.4,3c3.8,2,7.8,3.9,12.1,5.7c1.1,0.4,2.2,0.9,3.2,1.3c1.1,0.4,2.2,0.9,3.3,1.3c2.2,0.9,4.4,1.8,6.7,2.6
			c2.2,0.9,4.5,1.8,6.8,2.7c2.3,0.9,4.5,1.9,6.8,2.8c4.6,1.8,9.1,3.7,13.7,5.5c1.1,0.4,2.3,0.9,3.4,1.3c1.1,0.4,2.3,0.8,3.4,1.2
			c1.1,0.4,2.2,0.8,3.3,1.2c1.1,0.4,2.2,0.8,3.3,1.1c0.5,0.2,1.1,0.4,1.6,0.6c0.5,0.2,1.1,0.3,1.6,0.5c0.1,0,0.2,0.1,0.3,0.1v45.9
			c0-0.5,0-1,0-1.5c0-1.5-0.1-3-0.1-4.5c0-1.5-0.1-3.1-0.1-4.6c-0.1-1.5-0.1-3.1-0.2-4.6c-0.1-1.5-0.1-3-0.2-4.5
			c-0.1-1.5-0.2-2.9-0.2-4.2c-0.1-1.3-0.2-2.6-0.2-3.7c-0.3-4.6-0.6-7.7-0.6-7.7s-0.1,3.1-0.1,7.8c0,1.2,0,2.4,0,3.8
			c0,1.3,0,2.7,0.1,4.2c0,1.5,0.1,3,0.1,4.5c0,1.5,0.1,3.1,0.1,4.6c0.1,1.5,0.1,3.1,0.2,4.6c0.1,1.5,0.1,3,0.2,4.5
			c0.1,2.9,0.3,5.6,0.5,7.9c0.3,4.6,0.6,7.7,0.6,7.7s0-0.3,0-0.8v5.8c-7.3,0.3-12.6,1.8-12.6,1.8c6,23.6,4.3,33.1,4.3,33.1
			s0.1,0.6,2.2,1.6c-3.6,3.4-1.8,9.7-1.8,9.7s1.9,2.2,17.6,9.1c15.7,6.9,25.4,1.6,25.4,0.3c0-1.1-3-4.2-10.1-9.4
			c-0.2-0.2-0.5-0.4-0.8-0.6c-0.3-0.3-0.7-0.5-1-0.8c-0.3-0.3-0.7-0.6-1.1-0.9c-0.4-0.3-0.7-0.6-1.1-0.9c-0.3-0.3-0.7-0.6-1-1
			c-0.3-0.3-0.7-0.7-0.9-1c-0.3-0.3-0.6-0.6-0.8-1c-0.3-0.3-0.5-0.6-0.7-0.9c-0.2-0.3-0.4-0.6-0.5-0.8c-0.1-0.3-0.2-0.5-0.3-0.7
			c-0.1-0.2-0.1-0.4-0.1-0.5c0-0.1,0-0.2,0-0.2s0,0.1,0,0.2c0,0.1,0,0.3,0,0.5c0,0.2,0.1,0.5,0.1,0.8c0.1,0.3,0.2,0.6,0.3,1
			c0.2,0.3,0.3,0.7,0.6,1.1c0.2,0.3,0.4,0.6,0.7,0.9c-5.3-4.6-3.8-6.7-3.2-7.3c-0.4-1.6-0.7-22,1.3-32c-3.3-1.1-6.7-1.6-9.9-1.9v-6
			c0.1-1,0.1-2.1,0.2-3.2c0.1-1.3,0.2-2.7,0.2-4.2c0.1-1.5,0.2-2.9,0.2-4.5c0.1-1.5,0.1-3.1,0.2-4.6c0-1.5,0.1-3.1,0.1-4.6
			c0.1-1.5,0.1-3,0.1-4.5c0.1-2.9,0.1-5.6,0.1-7.9c0-4.6-0.1-7.8-0.1-7.8s-0.3,3.1-0.6,7.7c-0.2,2.2-0.3,4.8-0.5,7.6v-31.5
			c0.9,0.2,1.8,0.5,2.6,0.7c2.1,0.4,4.1,0.9,6.1,1.3c2,0.3,3.9,0.7,5.7,0.9c1.8,0.2,3.6,0.4,5.3,0.6c1.7,0.1,3.3,0.2,4.8,0.3
			c0.4,0,0.7,0,1.1,0.1c0.4,0,0.7,0,1.1,0c0.7,0,1.4,0,2,0c1.3,0,2.5,0,3.6,0c2.2-0.1,3.8-0.2,5-0.3c1.2-0.1,1.8-0.1,1.8-0.1
			s-2.5,0-6.8,0c-1.1-0.1-2.3-0.1-3.6-0.2c-0.6,0-1.3-0.1-2-0.1c-0.3,0-0.7,0-1.1-0.1c-0.4,0-0.7-0.1-1.1-0.1
			c-1.5-0.2-3.1-0.3-4.7-0.5c-1.7-0.3-3.4-0.5-5.2-0.8c-1.8-0.3-3.7-0.7-5.6-1.1c-1.9-0.4-3.9-1-6-1.5c-1-0.3-2-0.6-3-0.9v-0.9
			c14.8,3.9,30.3,5.4,49.7,2.6c2.1-0.3,4.2-0.6,6.2-1v22.1c0-0.3,0-0.6,0-0.9c-0.1-1.3-0.1-2.6-0.2-3.7c-0.2-4.6-0.5-7.7-0.5-7.7
			s-0.1,3.1-0.2,7.7c0,1.2,0,2.4,0,3.8c0,1.3,0,2.7,0,4.2c0,1.5,0,3,0,4.5c0,1.5,0,3.1,0.1,4.6c0,1.5,0.1,3.1,0.1,4.6
			c0,1.5,0.1,3,0.1,4.5c0.1,2.9,0.2,5.6,0.4,7.9c0.1,1.4,0.2,2.7,0.2,3.8v7.5c-6.3,0.3-10.8,1.6-10.8,1.6
			c5.4,21.3,3.9,29.8,3.9,29.8s0.1,0.5,1.9,1.4c-3.3,3.1-1.6,8.7-1.6,8.7s1.7,1.9,15.8,8.2c14.1,6.2,22.9,1.4,22.9,0.3
			c0-0.6-1.1-2.1-3.7-4.2c0,0,0,0,0,0s-0.4-0.4-1.2-1c-0.9-0.7-1.9-1.5-3.1-2.4c-0.4-0.3-0.8-0.6-1.2-0.9c-0.4-0.3-0.8-0.6-1.2-1
			c-0.4-0.4-0.8-0.7-1.2-1.1c-0.2-0.2-0.4-0.3-0.6-0.5c-0.2-0.2-0.3-0.4-0.5-0.5c-0.3-0.4-0.7-0.7-1-1c-0.3-0.3-0.6-0.7-0.8-1
			c-0.1-0.2-0.2-0.3-0.4-0.4c-0.1-0.1-0.2-0.3-0.3-0.4c-0.2-0.3-0.4-0.5-0.5-0.7c-0.1-0.2-0.2-0.4-0.3-0.5c-0.1-0.1-0.1-0.2-0.1-0.2
			s0,0.1,0,0.2c0,0.1,0.1,0.3,0.2,0.5c0.1,0.2,0.2,0.5,0.3,0.8c0.1,0.1,0.1,0.3,0.2,0.5c0.1,0.2,0.2,0.3,0.3,0.5
			c0.2,0.3,0.4,0.7,0.7,1.1c0.2,0.2,0.4,0.5,0.6,0.8c-6.7-5.1-5.1-7.4-4.6-7.9c-0.4-1.4-0.6-19.8,1.2-28.8c-3-0.9-6-1.4-8.8-1.7
			c0.1-1.1,0.2-2.4,0.3-3.9c0.1-1.2,0.2-2.4,0.2-3.7c0.1-1.3,0.2-2.7,0.2-4.2c0.1-1.5,0.2-2.9,0.2-4.5c0.1-1.5,0.1-3.1,0.2-4.6
			c0-1.5,0.1-3.1,0.1-4.6c0.1-1.5,0.1-3,0.1-4.5c0.1-2.9,0.1-5.6,0.1-7.9c0-4.6-0.1-7.8-0.1-7.8s-0.3,3.1-0.6,7.7
			c-0.2,2.3-0.3,5-0.5,7.9c-0.1,1.5-0.2,3-0.2,4.5c0,0.9-0.1,1.7-0.1,2.6v-41.4c23.1-6.1,37.4-18.7,45.6-30.4c0.1,0,0.2,0.1,0.3,0.1
			c-0.4,0.5-0.8,1.1-1.2,1.6c-0.3,0.4-0.6,0.8-1,1.2c-0.3,0.4-0.6,0.8-1,1.2c-0.6,0.8-1.4,1.6-2,2.4l-1,1.2l-1.1,1.1l-1.1,1.1
			c-0.2,0.2-0.4,0.4-0.6,0.6l-0.6,0.5c-0.8,0.7-1.5,1.4-2.3,2.1c-1.6,1.3-3.1,2.7-4.7,3.9c-0.8,0.6-1.5,1.2-2.3,1.8
			c-0.8,0.5-1.6,1.1-2.3,1.6c-0.4,0.3-0.7,0.5-1.1,0.8c-0.4,0.2-0.7,0.5-1.1,0.7c-0.7,0.5-1.4,0.9-2.1,1.3c-0.7,0.4-1.4,0.8-2,1.1
			c-0.6,0.4-1.2,0.7-1.8,1c-1.1,0.7-2.1,1.1-3,1.6c-0.8,0.4-1.5,0.8-1.9,1c-0.4,0.2-0.7,0.4-0.7,0.4s0.3-0.1,0.7-0.3
			c0.5-0.2,1.2-0.4,2.1-0.7c0.9-0.3,2-0.7,3.2-1.2c0.6-0.3,1.2-0.6,1.9-0.8c0.7-0.3,1.4-0.6,2.1-1c0.7-0.4,1.5-0.8,2.2-1.2
			c0.4-0.2,0.8-0.4,1.2-0.6c0.4-0.2,0.8-0.5,1.2-0.7c0.8-0.5,1.6-1,2.4-1.5c0.4-0.2,0.8-0.5,1.2-0.8c0.4-0.3,0.8-0.6,1.2-0.9
			c0.8-0.6,1.7-1.2,2.5-1.8c0.8-0.7,1.6-1.3,2.5-2c0.8-0.7,1.6-1.4,2.4-2.2l0.6-0.5c0.2-0.2,0.4-0.4,0.6-0.6l1.1-1.2l1.1-1.2
			l1.1-1.2c0.7-0.8,1.4-1.6,2.1-2.5c0.7-0.8,1.3-1.7,1.9-2.5c0.5-0.7,1-1.5,1.5-2.2c0.3,0.1,0.7,0.1,1,0.2c0.3,0.1,0.5,0.1,0.8,0.2
			c0.3,0,0.5,0.1,0.8,0.1c0.5,0.1,1.1,0.1,1.6,0.2c0.5,0.1,1.1,0.1,1.7,0.1c0.6,0,1.1,0.1,1.7,0.1c0.6,0,1.1,0,1.7,0l0.9,0l0.4,0
			l0.4,0c0.6,0,1.1-0.1,1.7-0.1c0.6-0.1,1.1-0.1,1.7-0.2c0.5-0.1,1.1-0.2,1.6-0.3c1.1-0.2,2.1-0.3,3-0.6c1-0.2,1.8-0.4,2.7-0.7
			c0.8-0.2,1.6-0.5,2.2-0.7c0.7-0.2,1.2-0.4,1.7-0.6c0.9-0.3,1.5-0.5,1.5-0.5s-0.6,0.1-1.5,0.2c-0.5,0.1-1.1,0.2-1.8,0.3
			c-0.7,0.1-1.4,0.3-2.3,0.4c-0.8,0.1-1.7,0.2-2.7,0.4c-0.5,0.1-1,0.2-1.5,0.2c-0.5,0-1,0.1-1.5,0.2c-0.5,0.1-1,0.1-1.6,0.2
			c-0.5,0-1.1,0.1-1.6,0.1c-0.2,0-0.4,0-0.6,0c5.5-0.6,11.1-2.1,16.7-4.5c9.8-4.1,19.7-10.8,29.5-20c3.3,1.1,6.8,1,10.1-0.2
			L298.2,123C292.6,128.8,292.5,138,298.1,143.9z M233,139.1c0.7-1.1,1.6-1.4,2.8-0.9c1.2,0.5,2,1.5,2.6,3.1
			c0.5,1.4,0.7,2.7,0.6,3.9c-0.1,1.3-0.5,2.4-1.1,3.3c-1.4,2-2.5,1.9-3.4-0.4c-0.4-0.9-0.7-2.2-1.1-3.9
			C232.7,141.4,232.6,139.7,233,139.1z M97,140.9c0.2-0.3,0.8-0.5,1.7-0.5c1.3,0,2.4,0.5,3.4,1.5c0.9,0.9,1.8,3.2,2.7,6.9
			c0.9,3.7,1.3,7,1.3,9.9c0,1.8,0.1,3.6,0.4,5.6c0.3,2,0.7,3.6,1.1,4.9c0.5,1.3,0.9,2,1.3,2c0.3,0,0.5-0.1,0.7-0.4
			c0.2-0.3,0.3-0.7,0.3-1.1c0-1,0.4-2.6,1.2-4.9c1.2-3.7,2.8-8.7,4.6-15.1c2.3-7.8,3.8-12.2,4.7-13.2c1.5-1.8,3.8-1.9,6.8-0.3
			c2.3,1.2,3.5,3.5,3.6,7c0.1,3.5-0.9,7.8-3.1,12.9c-0.9,2.2-2.7,7.5-5.5,15.6c-1.4,4.3-2.7,7.5-3.7,9.8c-1,2.2-2.2,3.8-3.4,4.7
			c-1.2,0.9-2.5,1.1-3.7,0.5c-1.3-0.6-2.8-1.7-4.7-3.6c-2.5-2.5-3.8-4.8-4.1-6.9c-1.4-7.6-3-15.8-4.9-24.4c-0.7-3-1.1-5.7-1.1-8.1
			C96.7,142.2,96.8,141.3,97,140.9z M86.1,153.3c0.4-0.7,0.9-0.9,1.5-0.5c0.6,0.3,1.1,1,1.4,2c0.3,0.9,0.4,1.7,0.3,2.5
			c-0.1,0.8-0.3,1.5-0.6,2c-0.7,1.2-1.3,1.1-1.8-0.3c-0.2-0.6-0.4-1.4-0.6-2.5C86,154.7,86,153.6,86.1,153.3z M78.8,150.6
			c0.8-1,1.8-1.2,2.9-0.6c1.1,0.6,1.9,1.7,2.2,3.3c0.4,1.4,0.4,2.7,0.1,4c-0.3,1.2-0.8,2.3-1.5,3.1c-1.6,1.8-2.7,1.6-3.4-0.7
			c-0.3-1-0.5-2.3-0.6-4C78.3,152.9,78.3,151.2,78.8,150.6z M129.4,201.7c-0.5-0.2-0.9-0.3-1.4-0.5c-0.5-0.2-1.1-0.4-1.6-0.6
			c-1.1-0.4-2.2-0.8-3.3-1.2c-1.1-0.4-2.2-0.8-3.3-1.2c-1.1-0.4-2.2-0.9-3.3-1.3c-1.1-0.4-2.2-0.9-3.4-1.3
			c-4.5-1.8-9.1-3.7-13.6-5.5c-2.3-0.9-4.6-1.8-6.8-2.8c-2.3-0.9-4.6-1.8-6.8-2.7c-2.3-0.9-4.5-1.7-6.7-2.6
			c-1.1-0.4-2.2-0.8-3.3-1.3c-1.1-0.4-2.2-0.9-3.2-1.3c-4.3-1.7-8.3-3.5-12.1-5.3c-3.8-1.8-7.3-3.7-10.4-5.7c-3.1-2-5.8-4-8-6
			c-1.2-1.1-2.2-2.2-3-3.3c5.4,5.7,16.4,13,37.8,21.2c20.3,7.8,36.3,15.5,52.6,20.5V201.7z M152,185.6c-1.8,2.3-4.4,3.7-7.8,4.4
			c-3.4,0.6-6.2,0.2-8.6-1.3c-2.2-1.3-3.7-4.2-4.6-8.7c-0.9-4.4-0.8-8.8,0.2-13.1c2.5-9.9,5-16.1,7.4-18.6c2-1.9,3.4-2.7,4.2-2.4
			c0.3,0.1,0.4,0.3,0.4,0.7c0,0.2,0.3,0.5,0.9,1c0.6,0.5,1.2,0.9,2,1.3c1.3,0.7,2.2,1.5,2.8,2.4c0.6,0.9,1.4,2.6,2.4,5.1
			c2.1,5.5,3.2,11.1,3.3,16.8C154.9,179,153.9,183.1,152,185.6z M151.1,135.5c-1.6-0.5-2.8-1.7-3.7-3.7c-0.5-1.4-1-4.9-1.3-10.6
			c-0.3-6.1-0.6-10.5-0.8-13.1c-0.2-2.7,0-5.6,0.5-8.7c0.5-3.1,1.2-5,2-5.5c0.9-0.7,2-0.9,3.3-0.8c1.3,0.2,2.4,0.8,3.4,1.9
			c0.8,0.7,1.3,1.4,1.6,2.1c0.3,0.7,0.5,1.7,0.7,2.9c0.3,2,0.3,4.1,0.1,6.3c-0.3,2.6-0.5,6.5-0.7,11.7l-0.3,8.7l4.1,0.1
			c2.5,0,4.4,0.2,5.4,0.4c1.1,0.3,1.7,0.7,1.8,1.3c0.1,0.6-0.5,1.3-1.9,2c-1.4,0.8-3.1,1.4-5.2,1.9c-1.9,0.5-3.3,1.2-4.3,2
			C154.2,135.6,152.7,136,151.1,135.5z M178.7,187.2c-1,0.5-2.3,0.2-3.9-0.9c-1.6-1-3-2.4-4.1-4.2c-1.3-2.3-2.5-3.8-3.5-4.6
			c-0.7-0.6-1.1-0.8-1.2-0.7c-0.1,0.1-0.1,0.6-0.1,1.5c0,0.8-0.2,2.9-0.8,6.2c-0.6,3.3-1,5.1-1.2,5.5c-0.2,0.2-0.5,0.1-1-0.4
			c-0.5-0.4-1.2-4.6-1.9-12.6c-0.8-8.4-1.3-13.2-1.7-14.5c-0.3-1.4-0.3-3-0.2-4.5c0.2-1.6,0.6-2.8,1.1-3.6c0.2-0.4,0.7-0.8,1.5-1.2
			c0.8-0.4,1.7-0.8,2.6-1.1c3.4-1,6.5-0.6,9.3,1.2c2.8,1.8,4.2,4.5,4.3,7.9c0,1.9-0.3,3.6-1,5.1c-0.7,1.6-1.9,3.3-3.7,5.1
			c-1.6,1.6-2.4,2.6-2.3,3c0,0.5,1.1,2,3.1,4.7c2.1,2.7,3.4,4.3,4.1,4.7c0.8,0.5,1.2,1.1,1.3,1.8
			C179.6,186.4,179.4,186.8,178.7,187.2z M182,127.3c-0.9-1.1-1.3-2.2-1.5-3.5c-0.2-1.6-0.4-2.6-0.7-3.2c-0.3-0.6-1-1.1-1.9-1.5
			c-2.7-1-4.7,0.3-6.1,3.9c-0.7,1.8-1.3,3-1.9,3.7c-0.5,0.7-1.1,1-1.6,1c-0.4,0-0.7-0.3-0.8-0.7c-0.1-0.5,0.1-1.6,0.5-3.4
			c0.4-1.8,1-4.1,1.8-6.9c0.8-2.8,2-6.9,3.7-12.3c0.6-1.9,1.2-3.7,1.9-5.2c0.6-1.6,1.1-2.5,1.4-2.8c0.5-0.5,0.9-0.7,1.1-0.7
			c0.2,0,0.8,0.3,1.5,0.9c2.3,1.9,4.1,4.4,5.5,7.7c0.6,1.3,1.5,5,2.9,11.1c1.3,6.2,2,9.8,1.9,10.9c-0.1,0.9-0.6,1.8-1.6,2.5
			c-1,0.8-2,1-2.9,0.7C183.9,129.1,182.9,128.3,182,127.3z M208.4,182.1c-1.1,1.1-2.3,1.6-3.4,1.4c-1.5-0.3-2.9-1.1-4.1-2.2
			c-1.2-1.1-2-2.5-2.4-4c-0.5-1.9-0.9-3.1-1.4-3.8c-0.5-0.7-1.3-1.2-2.5-1.5c-3.4-0.8-5.7,1.2-6.8,5.8c-0.6,2.3-1.1,3.9-1.6,4.8
			c-0.5,0.9-1.1,1.4-1.8,1.5c-0.5,0-0.9-0.2-1.1-0.8c-0.2-0.6-0.2-2,0-4.2c0.2-2.2,0.5-5.1,1-8.6c0.5-3.5,1.3-8.7,2.4-15.5
			c0.4-2.4,0.9-4.6,1.4-6.7c0.5-2,0.9-3.2,1.2-3.6c0.5-0.7,1-1.1,1.3-1.1c0.3,0,1,0.3,2,0.9c3.1,1.9,5.8,4.7,8,8.4
			c0.9,1.4,2.7,5.7,5.3,13c2.6,7.2,4,11.5,4.1,12.9C210,179.9,209.5,181,208.4,182.1z M240.8,167.3c-0.3,1.1-2.9,3-8,5.7
			c-5.1,2.6-9.2,4.3-12.3,4.9c-2.7,0.6-4.7,0.7-5.9,0.1c-1.3-0.6-2.2-1.9-2.9-4c-0.7-2.4-0.5-8.7,0.5-18.9c1-10.2,2.1-15.9,3.2-17.1
			c0.5-0.5,0.6-1.1,0.4-1.8c-0.2-0.7-2-0.7-5.4,0c-5,1.1-7.9,0.7-8.4-1.3c-0.1-0.3,0-0.6,0.4-1c0.3-0.4,0.8-0.8,1.5-1.1
			c1.9-0.9,5.2-2,9.9-3.1c4.7-1.1,7.6-1.5,8.7-1.2c0.9,0.3,1.6,0.7,1.9,1.3c0.3,0.6,0.7,2.2,1.2,4.7c0.5,2.2,0.7,4.4,0.6,6.8
			c-0.1,2.4-0.6,6-1.4,11c-1.3,7.8-2,12.7-2,14.6l0.2,2.2l8.3-2.1c5.7-1.4,8.7-2,9.2-1.8C241,165.5,241.1,166.1,240.8,167.3z
			 M242.4,144.4c-0.6,1.3-1.2,1.3-1.8-0.1c-0.3-0.6-0.5-1.4-0.8-2.4c-0.5-1.7-0.7-2.7-0.5-3.1c0.3-0.7,0.8-0.9,1.4-0.7
			c0.7,0.3,1.2,0.9,1.6,1.8c0.4,0.8,0.5,1.6,0.6,2.4C242.8,143.2,242.7,143.9,242.4,144.4z"/>
		<path class="st0" d="M191.8,155c0-0.4-0.2-0.7-0.4-1.1c-0.2-0.3-0.5-0.4-0.8-0.4c-0.6,0.1-1,1.5-1,4.3c0,2.5-0.2,5.1-0.3,7.7
			l-0.2,3.5l2.7-0.2c1.8-0.1,2.8-0.7,3-1.6c0.2-0.9-0.2-2.9-1.1-5.8C192.6,158.5,192,156.4,191.8,155z"/>
		<path class="st0" d="M316.4,118.2c1.2-1.7,1-4-0.4-5.6c-1.7-1.8-4.6-1.9-6.4-0.2l-4,3.8c-1.6-0.7-3.5-0.4-4.9,0.9
			c-1.8,1.7-1.9,4.6-0.2,6.4l5.7,6c1.2,1.3,3,1.7,4.5,1.2c1.5,0.7,3.3,0.5,4.6-0.7l0.3-0.2c-1.5,1.4-1.5,3.7-0.2,5.1
			c1.2,1.3,3.1,1.5,4.6,0.6c-0.6,1.2-0.5,2.7,0.5,3.8c1.2,1.3,3.3,1.4,4.6,0.1l4.4-4.1c1.3-1.2,1.4-3.3,0.1-4.6
			c-1-1-2.5-1.3-3.7-0.7c1-1.4,0.9-3.3-0.3-4.6c-1.4-1.5-3.7-1.5-5.2-0.2l-0.4,0.4l0.7-0.6c1.6-1.5,1.7-4.1,0.2-5.7
			C319.7,117.8,317.9,117.5,316.4,118.2z"/>
	</g>
</g>
</svg>
